<?xml version="1.0" standalone="no"?>
<!DOCTYPE svg PUBLIC "-//W3C//DTD SVG 20010904//EN"
 "http://www.w3.org/TR/2001/REC-SVG-20010904/DTD/svg10.dtd">
<svg version="1.0" xmlns="http://www.w3.org/2000/svg"
 width="203.000000pt" height="212.000000pt" viewBox="0 0 203.000000 212.000000"
 preserveAspectRatio="xMidYMid meet">
<metadata>
Created by potrace 1.16, written by Peter Selinger 2001-2019
</metadata>
<g transform="translate(0.000000,212.000000) scale(0.100000,-0.100000)"
fill="#000000" stroke="none">
<path d="M910 1861 c-148 -46 -262 -178 -291 -337 -37 -202 99 -422 297 -480
l54 -15 0 -135 0 -134 70 0 70 0 0 135 0 134 42 12 c72 19 140 59 194 115 224
229 124 618 -183 708 -46 13 -53 13 -53 0 0 -7 7 -14 15 -14 44 0 131 -46 189
-100 72 -68 113 -143 129 -237 32 -197 -99 -397 -295 -451 l-38 -10 0 134 0
135 -67 -3 -68 -3 -3 -132 -3 -131 -37 10 c-147 41 -267 177 -292 335 -31 188
99 393 280 444 49 14 66 24 53 32 -4 3 -33 -3 -63 -12z"/>
<path d="M809 435 c-29 -15 -59 -70 -59 -105 0 -99 125 -155 190 -85 33 35 17
43 -20 11 -17 -14 -42 -26 -55 -26 -33 0 -85 46 -85 76 0 24 1 24 95 24 107 0
113 5 75 68 -31 50 -89 65 -141 37z"/>
<path d="M1314 431 c-59 -37 -68 -134 -17 -185 41 -42 104 -45 146 -8 15 14
17 13 17 -1 0 -10 5 -17 10 -17 6 0 10 43 10 110 0 67 -4 110 -10 110 -5 0
-10 -7 -10 -17 0 -15 -2 -15 -19 1 -30 27 -90 31 -127 7z m105 -16 c34 -17 41
-33 41 -87 0 -30 -7 -46 -29 -69 -36 -36 -70 -37 -109 -4 -52 43 -48 130 7
160 34 18 55 18 90 0z"/>
</g>
</svg>
